<?xml version="1.0" encoding="UTF-8"?>
<svg version="1.1" xmlns="http://www.w3.org/2000/svg" width="652" height="270">
<path d="M0 0 C5.1901325 4.2078878 6.60491513 9.70762609 7.375 16.125 C5.72673152 33.15710764 -4.36310754 44.93647774 -17.0625 55.5625 C-17.701875 56.036875 -18.34125 56.51125 -19 57 C-17.62708132 57.48509793 -16.25153297 57.96275513 -14.875 58.4375 C-14.10929688 58.70433594 -13.34359375 58.97117188 -12.5546875 59.24609375 C-5.56191995 61.30970864 1.51792766 61.31940873 8.75 61.4375 C10.44382813 61.50614258 10.44382813 61.50614258 12.171875 61.57617188 C20.29970767 61.68435483 25.6443261 60.14881341 32 55 C44.01997598 42.5566558 49.36819318 24.50663981 52.12890625 7.828125 C53.14441281 4.53114407 53.98556678 3.60107259 57 2 C63.09690906 1.3582201 63.09690906 1.3582201 65.6875 3.19921875 C68.54537821 7.1202957 67.43428102 12.40470089 67 17 C63.62442143 38.19863339 52.45327498 60.57801414 34.93359375 73.52734375 C22.59540447 81.60452649 8.87481303 80.74871372 -5.125 78.625 C-5.97932617 78.49899414 -6.83365234 78.37298828 -7.71386719 78.24316406 C-9.82237572 77.90181892 -11.91401504 77.4593381 -14 77 C-14.33 76.34 -14.66 75.68 -15 75 C-16.99676414 74.64780108 -18.9975115 74.31804229 -21 74 C-23.06410183 73.24631396 -25.10701158 72.43214463 -27.125 71.5625 C-28.13820312 71.13066406 -29.15140625 70.69882813 -30.1953125 70.25390625 C-33 69 -33 69 -34.91796875 67.64453125 C-38.39280117 66.56883266 -41.1127899 68.57345168 -44.1875 70.125 C-50.02466029 72.87993408 -55.70095579 74.94935675 -62 76.375 C-63.02130005 76.60727295 -63.02130005 76.60727295 -64.06323242 76.84423828 C-67.49017231 77.57992766 -70.89340312 78.1328762 -74.375 78.5390625 C-77.82496708 78.77464235 -77.82496708 78.77464235 -80 80 C-107.02986865 81.16112323 -139.89674026 81.22873017 -162.25 63.5625 C-164.86137522 61.12917309 -166.54707053 59.01629479 -168.3125 55.9375 C-168.80363281 55.10089844 -169.29476562 54.26429688 -169.80078125 53.40234375 C-172.81928541 47.35550316 -172.89600142 40.69152585 -171.31640625 34.18359375 C-169.20997915 27.89927388 -166.32512237 22.99139448 -162 18 C-161.21625 17.01 -160.4325 16.02 -159.625 15 C-155.84908415 12.12311173 -153.66818585 12.46430654 -149 13 C-146.12295319 15.87704681 -146.1338599 17.98420312 -146 22 C-147.78814572 25.24515334 -149.90761936 27.88709032 -152.25 30.75 C-154.68292478 35.26828887 -155.00605015 38.9777338 -154 44 C-150.67737413 51.10595197 -142.90415645 54.2533646 -136 57 C-127.01338125 59.81997682 -118.08603939 61.14693779 -108.671875 61.203125 C-107.88901123 61.21004868 -107.10614746 61.21697235 -106.29956055 61.22410583 C-103.78298909 61.24132235 -101.2666276 61.24769386 -98.75 61.25 C-97.89506958 61.25133942 -97.04013916 61.25267883 -96.15930176 61.25405884 C-80.30642031 61.24865402 -65.07174213 60.46302221 -50 55 C-49.84188612 51.94729537 -49.84188612 51.94729537 -51 49 C-52.16944658 33.94755182 -49.6758102 21.56259503 -40.09375 9.40625 C-29.36624379 -2.92237654 -15.04255222 -8.49430833 0 0 Z M-28.7734375 20.15625 C-34.08233178 27.71818722 -35.72105391 34.82752347 -35 44 C-34.67 44.66 -34.34 45.32 -34 46 C-25.4778923 44.34082859 -19.05974544 36.58214672 -14 30 C-10.76464399 25.09243752 -9.17644744 21.00016868 -10 15 C-10.98048938 12.93597315 -10.98048938 12.93597315 -13 12 C-19.87201921 10.5616704 -24.65557775 15.14951303 -28.7734375 20.15625 Z " fill="#5B1CD1" transform="translate(172,143)"/>
<path d="M0 0 C-1.33159984 3.74967915 -2.99018652 6.50098653 -5.4375 9.625 C-11.37336626 17.63949091 -16.16477853 26.29162514 -21 35 C-21.68715088 36.22638184 -21.68715088 36.22638184 -22.38818359 37.47753906 C-28.85624553 49.09843669 -34.16168842 60.95560689 -39.0793457 73.30883789 C-51.05991183 103.31947765 -69.10366199 129.3347298 -98 145 C-99.65349672 145.69869223 -101.31620459 146.37786236 -103 147 C-103 147.66 -103 148.32 -103 149 C-101.63875 149.37125 -101.63875 149.37125 -100.25 149.75 C-96.858654 151.05436385 -95.43668973 152.39380142 -93 155 C-110.38970834 168.4616801 -131.57760761 175.40943558 -153.5 175.25 C-154.56347656 175.25773438 -155.62695312 175.26546875 -156.72265625 175.2734375 C-163.37929621 175.25710219 -169.53317441 174.58599801 -176 173 C-182.52606128 184.64971365 -188.00273807 196.41751501 -192.77490234 208.89624023 C-193.16887207 209.92177002 -193.5628418 210.9472998 -193.96875 212.00390625 C-194.31357422 212.91986572 -194.65839844 213.8358252 -195.01367188 214.77954102 C-196 217 -196 217 -198 219 C-200.125 218.625 -200.125 218.625 -202 218 C-203.05264919 214.12556492 -202.96279906 211.9857701 -201.41015625 208.296875 C-201.04156494 207.40661621 -200.67297363 206.51635742 -200.29321289 205.59912109 C-199.88707764 204.65891113 -199.48094238 203.71870117 -199.0625 202.75 C-198.65443115 201.7801416 -198.2463623 200.8102832 -197.82592773 199.81103516 C-188.44674712 177.72510376 -188.44674712 177.72510376 -184.609375 171.8828125 C-183.73726079 169.86581223 -183.73726079 169.86581223 -185.01171875 167.40625 C-185.56472656 166.4471875 -186.11773437 165.488125 -186.6875 164.5 C-197.73857434 143.83600483 -195.49447769 118.16337446 -190.45751953 96.07714844 C-189.86792077 93.40035749 -189.41637304 90.70861617 -189 88 C-187.515 87.505 -187.515 87.505 -186 87 C-182.37 90.63 -178.74 94.26 -175 98 C-174.64808594 96.86304687 -174.29617188 95.72609375 -173.93359375 94.5546875 C-165.3841689 67.54567604 -150.352035 45.96635484 -126 31 C-125.42121094 30.63600098 -124.84242188 30.27200195 -124.24609375 29.89697266 C-88.75974881 7.77549035 -41.5032838 -0.84700579 0 0 Z M-30 9 C-31.9648173 9.17460692 -33.93310197 9.31140723 -35.90234375 9.42578125 C-42.56672267 9.90279688 -49.01090842 10.89994454 -55.5625 12.1875 C-56.68293701 12.40599609 -57.80337402 12.62449219 -58.95776367 12.84960938 C-94.78647622 20.08618882 -132.19948664 35.15041526 -153.78466797 66.16601562 C-162.03580131 78.61730403 -168.21550877 92.66463156 -168.0625 107.8125 C-168.05347656 108.97394531 -168.04445313 110.13539062 -168.03515625 111.33203125 C-168.02355469 112.21246094 -168.01195312 113.09289062 -168 114 C-173.22325977 109.53648711 -178.20922972 104.9255107 -183 100 C-188.24769099 105.24769099 -187.29195926 116.1386062 -187.37963867 123.11279297 C-187.37810791 124.29244629 -187.37657715 125.47209961 -187.375 126.6875 C-187.37411377 127.9161377 -187.37322754 129.14477539 -187.37231445 130.41064453 C-187.21856488 142.24702039 -185.57635045 152.42251003 -180 163 C-176.30008679 159.54733474 -173.98330019 155.35872362 -171.375 151.0625 C-170.87226563 150.25103516 -170.36953125 149.43957031 -169.8515625 148.60351562 C-169.37203125 147.81783203 -168.8925 147.03214844 -168.3984375 146.22265625 C-167.96192871 145.50859619 -167.52541992 144.79453613 -167.07568359 144.05883789 C-166.01804545 142.03453865 -165.44986852 140.23083339 -165 138 C-164.34 138 -163.68 138 -163 138 C-161.48321676 136.03095077 -160.07854405 134.05577865 -158.6875 132 C-152.46635854 123.03653005 -145.64211822 114.51961754 -138.50244141 106.26953125 C-135.84241377 103.52988274 -135.84241377 103.52988274 -135 100 C-134.43031494 99.75773682 -133.86062988 99.51547363 -133.27368164 99.26586914 C-130.56517827 97.7579136 -128.77942063 95.97146821 -126.62109375 93.74609375 C-125.78779541 92.8957959 -124.95449707 92.04549805 -124.09594727 91.16943359 C-123.21865967 90.26789551 -122.34137207 89.36635742 -121.4375 88.4375 C-114.57278264 81.48146554 -107.80256622 74.89687032 -100 69 C-99.02675781 68.22140625 -98.05351563 67.4428125 -97.05078125 66.640625 C-90.89081096 61.73258767 -84.51429309 57.20852407 -77.9375 52.875 C-76.84767822 52.14627686 -76.84767822 52.14627686 -75.73583984 51.40283203 C-75.04828613 50.95794434 -74.36073242 50.51305664 -73.65234375 50.0546875 C-73.04382568 49.65749512 -72.43530762 49.26030273 -71.80834961 48.85107422 C-70 48 -70 48 -66 48 C-66.078125 50.20703125 -66.078125 50.20703125 -67 53 C-69.2362256 54.77881582 -71.32336977 56.22229174 -73.75 57.6875 C-75.12996619 58.56400058 -76.50753119 59.44429172 -77.8828125 60.328125 C-78.57665039 60.77220703 -79.27048828 61.21628906 -79.98535156 61.67382812 C-99.42733034 74.47179573 -117.9728771 91.3389718 -133 109 C-133.82242188 109.93457031 -134.64484375 110.86914062 -135.4921875 111.83203125 C-148.05565436 126.21930165 -158.91650723 141.82862525 -168.85302734 158.12011719 C-169.83292622 159.72616685 -170.83068224 161.3212984 -171.83203125 162.9140625 C-173.1628512 164.89240021 -173.1628512 164.89240021 -173 167 C-148.65959802 170.92813404 -127.91421739 166.91958435 -106 156 C-108.56887774 153.24597792 -110.83717771 151.3426504 -114.25 149.75 C-114.95640625 149.41484375 -115.6628125 149.0796875 -116.390625 148.734375 C-117.18726563 148.37085938 -117.18726563 148.37085938 -118 148 C-115.5090777 146.33938513 -113.13287008 145.01114946 -110.46484375 143.6796875 C-100.93164306 138.85724378 -91.91663209 134.28623361 -84 127 C-83.20078125 126.32839844 -82.4015625 125.65679687 -81.578125 124.96484375 C-63.00296426 109.07212081 -51.99230717 88.36299923 -43.1875 65.875 C-35.92114146 47.36525657 -27.04683234 29.57024851 -16 13 C-16 12.01 -16 11.02 -16 10 C-15.34 10 -14.68 10 -14 10 C-14 9.34 -14 8.68 -14 8 C-16.10409639 7.97298592 -18.20829178 7.95359777 -20.3125 7.9375 C-21.48425781 7.92589844 -22.65601563 7.91429687 -23.86328125 7.90234375 C-27.03059195 7.85100102 -27.03059195 7.85100102 -30 9 Z " fill="#7221C3" transform="translate(622,1)"/>
<path d="M0 0 C4.55555556 0.55555556 4.55555556 0.55555556 6 2 C7.47680749 20.90537343 6.76631893 44.86888888 -5.4765625 60.50390625 C-11.1537178 66.0791639 -17.05725851 69.13111528 -25 69.3125 C-37.77038958 69.15659069 -46.02041507 63.77308834 -54.98046875 55.078125 C-60.16574876 49.56141472 -64.41548017 43.33725096 -68.70068359 37.11547852 C-74.55938104 28.18373855 -74.55938104 28.18373855 -83 22 C-84.32 22 -85.64 22 -87 22 C-86.97643433 22.99012085 -86.97643433 22.99012085 -86.95239258 24.00024414 C-86.88963312 27.02090727 -86.85088017 30.0414327 -86.8125 33.0625 C-86.78736328 34.10083984 -86.76222656 35.13917969 -86.73632812 36.20898438 C-86.67092526 43.07628556 -87.00645091 48.40774109 -91.5625 53.875 C-94.6039899 56.25529644 -97.54930073 56.58467571 -101.3828125 56.5234375 C-109.7669631 54.84660738 -116.45784276 46.71895137 -122.51000977 41.01416016 C-129.99538101 34.06892029 -139.8867099 27.26715514 -150 25 C-150.28910072 30.58928051 -149.79946461 35.29590912 -148.5 40.75 C-144.78605353 57.05599356 -144.78605353 57.05599356 -148.3046875 63.32421875 C-150 65 -150 65 -153.5 65.6875 C-161.47519284 65.26390917 -168.08054779 58.81672664 -173.9375 53.9375 C-181.23423816 48.00528657 -189.10848356 42.892801 -198.82421875 43.62109375 C-204.75650605 44.65418508 -208.2882171 47.71946203 -212.0546875 52.1953125 C-216.35764152 58.3991699 -219.62314173 65.261598 -223 72 C-224.98 71.67 -226.96 71.34 -229 71 C-229.40900454 65.31775832 -228.25185022 61.49793643 -225.5 56.625 C-225.1376123 55.97160645 -224.77522461 55.31821289 -224.40185547 54.64501953 C-219.26268711 45.65870221 -213.28510111 38.02839088 -203 35 C-191.40474282 32.89693865 -182.50212301 36.80840543 -173 43 C-167.14831556 47.09485 -161.53187041 51.48519993 -156 56 C-156.54470857 48.2690373 -156.54470857 48.2690373 -158.0625 40.6875 C-159.49873713 34.62460584 -159.87842784 28.16388351 -159 22 C-157.19290885 19.27820839 -155.93125415 17.46562708 -153 16 C-139.28745519 15.76357681 -126.67924981 25.17348162 -117 34 C-115.67162109 35.20269531 -115.67162109 35.20269531 -114.31640625 36.4296875 C-112.6184453 37.96870114 -110.92052568 39.50776039 -109.22265625 41.046875 C-103.88498961 45.79729408 -103.88498961 45.79729408 -97 47 C-96.05678239 39.82866612 -95.96959884 32.96996077 -96.30273438 25.75390625 C-96.39254492 21.62262098 -96.35873243 19.57337772 -94.11328125 15.984375 C-90.64740314 12.72990905 -88.05033448 12.59362498 -83.4375 12.66015625 C-75.51821096 13.76428789 -69.05959046 21.0871755 -64.36376953 27.0925293 C-62.75660772 29.31439936 -61.1859375 31.55794525 -59.625 33.8125 C-47.95540481 50.92847103 -47.95540481 50.92847103 -30 60 C-23.76572548 60.51952288 -19.01441558 59.98448375 -14 56 C-3.35502313 43.66261898 -2.89019002 25.09975872 -2.48242188 9.65429688 C-2.44826172 8.69974609 -2.41410156 7.74519531 -2.37890625 6.76171875 C-2.34132202 5.4617395 -2.34132202 5.4617395 -2.30297852 4.13549805 C-2 2 -2 2 0 0 Z " fill="#FB4269" transform="translate(646,172)"/>
<path d="M0 0 C4.13013982 2.39463451 7.52237555 5.74586456 11 9 C11.76981201 9.71422119 11.76981201 9.71422119 12.55517578 10.44287109 C22.02493184 19.31911467 32.82393412 29.62231139 33.4375 43.3125 C32.68402833 65.43442816 9.77441995 84.59188798 -5 99 C-5.99 99.99 -5.99 99.99 -7 101 C-8.9017784 102.48213716 -10.83992627 103.90740532 -12.78515625 105.33203125 C-14.2441944 106.43081307 -15.67088021 107.57413088 -17.05859375 108.76171875 C-20.49923302 111.63897849 -22.15579463 112.95778973 -26.75 113.1875 C-30.65114333 111.76208225 -31.98864452 110.62043986 -34 107 C-34.5625 104 -34.5625 104 -34 101 C-30.59786677 96.69063124 -25.98803237 93.57292033 -21.6953125 90.18359375 C-15.46537718 85.13644325 -9.65704089 79.67469157 -4 74 C-3.22140625 73.2678125 -2.4428125 72.535625 -1.640625 71.78125 C6.03154979 64.46008974 15.46157406 54.90119005 17 44 C14.44477417 37.59725022 9.6295862 33.24380641 4.75 28.5 C4.02425781 27.77941406 3.29851562 27.05882812 2.55078125 26.31640625 C-1.61648519 22.20856606 -5.86648196 18.34916551 -10.45996094 14.72070312 C-12.43966561 12.50875663 -12.76211761 10.935032 -13 8 C-10.29826039 1.11056398 -7.37968661 -0.72924937 0 0 Z " fill="#5C1CD1" transform="translate(284,134)"/>
<path d="M0 0 C3 2 3 2 3.86328125 5.13671875 C4.02156453 9.6093519 2.97126632 12.80718109 1.1875 16.8125 C0.87127686 17.54533203 0.55505371 18.27816406 0.22924805 19.03320312 C-9.18397191 40.28347384 -22.32199208 58.93547105 -38 76 C-38.59135742 76.65790527 -39.18271484 77.31581055 -39.79199219 77.99365234 C-41.58701194 79.97835449 -43.41219631 81.92992859 -45.25 83.875 C-46.06283447 84.77738403 -46.06283447 84.77738403 -46.89208984 85.69799805 C-50.68424012 89.59678473 -53.59964188 90.73657388 -59.02441406 91.09423828 C-61 91 -61 91 -63.5 90 C-65.8765877 86.8312164 -66.19539121 84.9729547 -66 81 C-64.71850586 79.13916016 -64.71850586 79.13916016 -62.96484375 77.2265625 C-62.32490479 76.52732666 -61.68496582 75.82809082 -61.02563477 75.10766602 C-58.52300169 72.5036849 -55.95890272 69.97551749 -53.35571289 67.47241211 C-36.38778705 51.11100648 -24.00519752 32.56480142 -14.53637695 11.05566406 C-11.4028303 4.13729223 -8.46458507 -1.10407631 0 0 Z " fill="#5C1CD1" transform="translate(391,160)"/>
<path d="M0 0 C-1.33159984 3.74967915 -2.99018652 6.50098653 -5.4375 9.625 C-11.37336626 17.63949091 -16.16477853 26.29162514 -21 35 C-21.68715088 36.22638184 -21.68715088 36.22638184 -22.38818359 37.47753906 C-30.04052482 51.22618199 -36.05169884 65.43697233 -41.81591797 80.06445312 C-43.43998566 84.09080156 -45.19099254 88.05376587 -47 92 C-48.485 91.505 -48.485 91.505 -50 91 C-50.33 91.66 -50.66 92.32 -51 93 C-51.66 92.67 -52.32 92.34 -53 92 C-52.44310549 86.95417382 -51.31085078 82.72057166 -49.41015625 78.01953125 C-49.15022888 77.37316711 -48.89030151 76.72680298 -48.62249756 76.06085205 C-47.77879642 73.97399254 -46.92198613 71.89290377 -46.0625 69.8125 C-45.62374039 68.7421199 -45.62374039 68.7421199 -45.17611694 67.65011597 C-38.31612344 50.9423008 -30.49101476 35.05668684 -21.12890625 19.6015625 C-19.24858693 16.47905255 -17.5818227 13.28571532 -16 10 C-15.34 10 -14.68 10 -14 10 C-14 9.34 -14 8.68 -14 8 C-16.10448938 8.14109986 -18.2085877 8.28804175 -20.3125 8.4375 C-21.48425781 8.51871094 -22.65601563 8.59992187 -23.86328125 8.68359375 C-27.02590958 8.8867371 -27.02590958 8.8867371 -30 10 C-31.9648173 10.17460692 -33.93310197 10.31140723 -35.90234375 10.42578125 C-42.56676578 10.90279997 -49.01082624 11.90023276 -55.5625 13.1875 C-57.24098022 13.51415649 -57.24098022 13.51415649 -58.95336914 13.84741211 C-72.34138418 16.54750797 -85.36713342 20.39481833 -98.1015625 25.3359375 C-100 26 -100 26 -102 26 C-102.33 26.66 -102.66 27.32 -103 28 C-105.36328125 29.2890625 -105.36328125 29.2890625 -108.3125 30.625 C-109.27800781 31.07101563 -110.24351562 31.51703125 -111.23828125 31.9765625 C-114 33 -114 33 -118 33 C-118.33 31.02 -118.66 29.04 -119 27 C-83.4535651 7.88634436 -40.2885266 -0.82221483 0 0 Z " fill="#EE4273" transform="translate(622,1)"/>
<path d="M0 0 C0.12375 0.804375 0.2475 1.60875 0.375 2.4375 C0.684375 3.7059375 0.684375 3.7059375 1 5 C1.99 5.495 1.99 5.495 3 6 C1.71029297 6.78310547 1.71029297 6.78310547 0.39453125 7.58203125 C-21.49485525 21.10405848 -39.08174334 39.03548526 -46.2578125 64.4375 C-47.73975728 71.55083496 -48.3831101 78.76777763 -49 86 C-53.07376031 84.38989473 -55.76507069 81.46177729 -58.75 78.375 C-59.25660156 77.859375 -59.76320313 77.34375 -60.28515625 76.8125 C-61.52803902 75.54616661 -62.76465276 74.2736856 -64 73 C-66.04093184 78.52400974 -66.64720477 83.83059146 -67.2421875 89.66015625 C-68.08896358 93.39208177 -69.41431216 95.23111566 -72 98 C-75.45081126 92.82378311 -75.28573078 87.76893279 -74.2578125 81.8359375 C-73.89271476 80.01307542 -73.51488084 78.1927226 -73.125 76.375 C-72.75219924 74.54956182 -72.37979282 72.72404305 -72.0078125 70.8984375 C-71.74339355 69.6295166 -71.74339355 69.6295166 -71.47363281 68.33496094 C-70.91219497 65.56713024 -70.43568755 62.79025433 -70 60 C-68.515 59.505 -68.515 59.505 -67 59 C-63.37 62.63 -59.74 66.26 -56 70 C-55.64808594 68.86304687 -55.29617188 67.72609375 -54.93359375 66.5546875 C-46.3515618 39.44266495 -31.29098193 18.13592134 -7 3 C-6.09378906 2.42636719 -5.18757813 1.85273438 -4.25390625 1.26171875 C-2 0 -2 0 0 0 Z " fill="#D13986" transform="translate(503,29)"/>
<path d="M0 0 C0.61875 0.33 1.2375 0.66 1.875 1 C3.91018344 2.14193235 3.91018344 2.14193235 6 2 C5.46819993 6.6975673 3.35270073 10.04935557 0.75 13.875 C0.30889893 14.52629883 -0.13220215 15.17759766 -0.58666992 15.84863281 C-12.6260838 33.22476245 -28.70021196 50.49952684 -49 58 C-49 58.66 -49 59.32 -49 60 C-48.0925 60.2475 -47.185 60.495 -46.25 60.75 C-42.858654 62.05436385 -41.43668973 63.39380142 -39 66 C-46.79064525 72.03087597 -55.01745057 76.10927288 -64 80 C-64.89847656 80.39316406 -65.79695313 80.78632813 -66.72265625 81.19140625 C-69.86379376 82.30669864 -72.69271433 82.12249206 -76 82 C-76.99 82 -77.98 82 -79 82 C-80.33333333 81.66666667 -81.66666667 81.33333333 -83 81 C-83.99 81 -84.98 81 -86 81 C-85.67 80.01 -85.34 79.02 -85 78 C-82.26037615 77.11800423 -79.60710794 76.40373763 -76.8125 75.75 C-68.09325848 73.5479333 -60.90057054 70.28647976 -53 66 C-56.96 63.69 -60.92 61.38 -65 59 C-63.73387572 56.46775143 -62.80382597 56.29514131 -60.23828125 55.1875 C-59.06471069 54.66567139 -59.06471069 54.66567139 -57.86743164 54.13330078 C-57.0243042 53.75931152 -56.18117676 53.38532227 -55.3125 53 C-46.39943541 48.89937277 -38.59544918 44.19874604 -31 38 C-30.47857422 37.57493164 -29.95714844 37.14986328 -29.41992188 36.71191406 C-20.12681134 28.98316319 -11.6817253 19.76370621 -5.8125 9.140625 C-4 6 -4 6 -2 5 C-1.27840576 3.35636866 -0.60648579 1.68949614 0 0 Z " fill="#BC3494" transform="translate(568,90)"/>
<path d="M0 0 C3.37016953 4.28930667 3.55818198 8.34690487 3.0625 13.625 C1.7443929 20.13734272 -0.89168464 25.24248431 -5.9375 29.625 C-10.42604704 32.28487973 -13.94044639 33.17750191 -19.01171875 32.26171875 C-23.45569712 30.7924115 -26.16185468 28.07511951 -28.375 23.9375 C-29.51990972 17.19525387 -28.94087152 11.63882757 -25.3125 5.75 C-21.85457826 1.04523147 -18.34905811 -0.9443466 -13 -3.1875 C-7.61474005 -3.67706909 -4.17223306 -3.37329482 0 0 Z " fill="#5B1CD1" transform="translate(158.9375,86.375)"/>
<path d="M0 0 C0.99 0.39638672 0.99 0.39638672 2 0.80078125 C1.953125 2.9765625 1.953125 2.9765625 1 5.80078125 C-1.19922607 7.8553214 -3.71016663 9.386684 -6.25 10.98828125 C-7.72193375 11.95808759 -9.19196208 12.93079155 -10.66015625 13.90625 C-11.76254639 14.63400635 -11.76254639 14.63400635 -12.88720703 15.37646484 C-25.94373182 24.17837906 -37.8696122 34.78482044 -49.375 45.48828125 C-50.02895752 46.09373779 -50.68291504 46.69919434 -51.35668945 47.32299805 C-58.60469514 54.13710198 -64.7302529 61.62627456 -70.69140625 69.578125 C-73.45562059 72.23944135 -75.23159464 72.5466707 -79 72.80078125 C-79.33 71.81078125 -79.66 70.82078125 -80 69.80078125 C-78.78880593 68.26223743 -77.56725713 66.72887278 -76.26171875 65.26953125 C-74.79680628 63.56424614 -73.97922217 61.82042697 -73 59.80078125 C-70.42067368 55.78006669 -67.96613904 52.63129447 -64.30859375 49.5625 C-60.03925674 45.89131794 -56.11854038 41.9523223 -52.1875 37.92578125 C-46.07820112 31.75076059 -39.89327145 26.09866673 -33 20.80078125 C-32.02160156 20.01703125 -31.04320312 19.23328125 -30.03515625 18.42578125 C-23.88972151 13.53306605 -17.52893855 8.98039389 -11 4.61328125 C-10.28183105 4.11908691 -9.56366211 3.62489258 -8.82373047 3.11572266 C-3.69122409 -0.24512035 -3.69122409 -0.24512035 0 0 Z " fill="#EE4274" transform="translate(555,48.19921875)"/>
<path d="M0 0 C2.50160818 1.87620613 3.61945652 3.23891303 5 6 C5.54969354 12.37644509 4.60471694 16.66974642 1 22 C-2.98437574 26.31640705 -6.34823122 26.73086815 -12 27 C-15.06112663 26.8345337 -15.68388337 26.34998627 -17.75 24.0625 C-19.83286738 18.95947492 -20.16562139 13.84929674 -18.05078125 8.6796875 C-13.75855754 1.34093277 -8.51141089 -1.47955367 0 0 Z " fill="#5C1CD1" transform="translate(170,242)"/>
<path d="M0 0 C3.38434142 2.06362282 3.84920454 3.43990258 4.875 7.25 C5.0617049 12.85114709 4.23828804 17.07851856 1.1875 21.8125 C-3.87022901 26.87022901 -3.87022901 26.87022901 -8.1796875 27.1328125 C-12.04957783 26.91711369 -14.40160967 26.43784658 -17.5625 24.125 C-19.7290531 19.41510195 -19.74166715 15.09427941 -19 10 C-17.3125 6.5625 -17.3125 6.5625 -15 4 C-13.948125 2.824375 -13.948125 2.824375 -12.875 1.625 C-8.634087 -0.77203778 -4.76062833 -0.78003538 0 0 Z " fill="#5C1CD1" transform="translate(209,242)"/>
<path d="M0 0 C0.66 0.66 1.32 1.32 2 2 C0.69791667 3.49739583 -0.60416667 4.99479167 -1.90625 6.4921875 C-3.19572458 7.95936421 -3.19572458 7.95936421 -3 10 C-2.01 10 -1.02 10 0 10 C0.33 9.01 0.66 8.02 1 7 C1.495 8.485 1.495 8.485 2 10 C0.55263341 12.08545294 -0.92097841 13.95021921 -2.5625 15.875 C-12.82773847 28.39609381 -21.44752326 42.27102418 -30 56 C-31.98 55.67 -33.96 55.34 -36 55 C-34.64161997 48.85068679 -31.96249042 44.42239311 -28.4375 39.25 C-27.43332583 37.75713624 -26.43189972 36.2624193 -25.43359375 34.765625 C-24.99072021 34.11368164 -24.54784668 33.46173828 -24.09155273 32.79003906 C-22.83610426 30.88151863 -22.83610426 30.88151863 -22 28 C-21.34 28 -20.68 28 -20 28 C-19.66548828 26.97132813 -19.66548828 26.97132813 -19.32421875 25.921875 C-17.64683241 22.22073937 -15.36493627 19.3873071 -12.8125 16.25 C-11.82273792 15.01316385 -10.8331548 13.77618447 -9.84375 12.5390625 C-9.36035156 11.93868164 -8.87695312 11.33830078 -8.37890625 10.71972656 C-6.49825168 8.37423599 -4.65349197 6.00169046 -2.8125 3.625 C-2.26207031 2.91601562 -1.71164062 2.20703125 -1.14453125 1.4765625 C-0.76683594 0.98929687 -0.38914062 0.50203125 0 0 Z " fill="#C8378C" transform="translate(479,111)"/>
<path d="M0 0 C4.18423892 3.50897269 8.19588166 7.08060535 12 11 C12.66 10.34 13.32 9.68 14 9 C16.4456759 10.65083123 17.57581825 11.47145275 19 14 C19.44894828 18.36272089 19.28797383 22.62919727 19 27 C14.92623969 25.38989473 12.23492931 22.46177729 9.25 19.375 C8.74339844 18.859375 8.23679687 18.34375 7.71484375 17.8125 C6.47196098 16.54616661 5.23534724 15.2736856 4 14 C1.95906816 19.52400974 1.35279523 24.83059146 0.7578125 30.66015625 C-0.08896358 34.39208177 -1.41431216 36.23111566 -4 39 C-7.45081126 33.82378311 -7.28573078 28.76893279 -6.2578125 22.8359375 C-5.89271476 21.01307542 -5.51488084 19.1927226 -5.125 17.375 C-4.75219924 15.54956182 -4.37979282 13.72404305 -4.0078125 11.8984375 C-3.73952637 10.62758301 -3.73952637 10.62758301 -3.46582031 9.33105469 C-3.07412862 7.3709539 -2.77245334 5.39317052 -2.4921875 3.4140625 C-2.32976562 2.61742188 -2.16734375 1.82078125 -2 1 C-1.34 0.67 -0.68 0.34 0 0 Z " fill="#B0319B" transform="translate(435,88)"/>
<path d="M0 0 C0 1.32 0 2.64 0 4 C1.6012776 5.90535223 1.6012776 5.90535223 3.75 7.5625 C4.44609375 8.14128906 5.1421875 8.72007812 5.859375 9.31640625 C7.88430794 10.90900862 9.93019093 12.46629012 12 14 C9.3365406 15.44371606 6.6695008 16.88003077 4 18.3125 C3.25621094 18.71662109 2.51242187 19.12074219 1.74609375 19.53710938 C-5.38463101 23.35049697 -11.70759518 26.48778852 -20 26 C-20.99 26 -21.98 26 -23 26 C-24.33333333 25.66666667 -25.66666667 25.33333333 -27 25 C-27.99 25 -28.98 25 -30 25 C-29.505 23.515 -29.505 23.515 -29 22 C-26.26037615 21.11800423 -23.60710794 20.40373763 -20.8125 19.75 C-12.09325848 17.5479333 -4.90057054 14.28647976 3 10 C-0.96 7.69 -4.92 5.38 -9 3 C-8 1 -8 1 -5.625 -0.1875 C-3 -1 -3 -1 0 0 Z " fill="#982AAB" transform="translate(512,146)"/>
<path d="M0 0 C0.33 0 0.66 0 1 0 C1.66 1.98 2.32 3.96 3 6 C4.32 5.01 5.64 4.02 7 3 C7.01981934 3.55349121 7.03963867 4.10698242 7.06005859 4.67724609 C7.4525512 17.97949069 7.4525512 17.97949069 9.58984375 31.078125 C10.15659588 33.73376357 10.14219897 36.2982196 10 39 C6.1007817 36.9325075 2.77369347 34.84758001 1.0234375 30.66796875 C-0.88829841 20.69555533 -0.18477404 10.11424683 0 0 Z " fill="#7D23BC" transform="translate(428,119)"/>
<path d="M0 0 C1.65 1.65 3.3 3.3 5 5 C3.11525969 10.86363652 1.06689719 16.65900208 -1.0625 22.4375 C-1.3198291 23.14777344 -1.5771582 23.85804688 -1.84228516 24.58984375 C-3.76785992 29.76785992 -3.76785992 29.76785992 -6 32 C-8.125 31.625 -8.125 31.625 -10 31 C-11.14733423 26.92145318 -10.8455963 24.71584793 -9.19921875 20.83984375 C-8.79896484 19.88142578 -8.39871094 18.92300781 -7.98632812 17.93554688 C-7.55771484 16.94619141 -7.12910156 15.95683594 -6.6875 14.9375 C-6.06198242 13.44766602 -6.06198242 13.44766602 -5.42382812 11.92773438 C-3.72018564 7.89279166 -1.99560568 3.90027094 0 0 Z " fill="#641ECD" transform="translate(430,188)"/>
<path d="M0 0 C2.33944736 0.28730055 4.6739143 0.61936779 7 1 C5.64838443 5.17373882 4.13078028 9.24052118 2.5 13.3125 C0.47480152 18.5218601 -0.97674788 23.51164771 -2 29 C-4.86724686 28.42655063 -5.8614515 28.1385485 -8 26 C-8.87779963 17.31344119 -4.49897979 8.7037197 -1 1 C-0.67 0.67 -0.34 0.34 0 0 Z " fill="#C6368D" transform="translate(457,73)"/>
<path d="M0 0 C0.66 0.99 1.32 1.98 2 3 C2.86625 2.7215625 2.86625 2.7215625 3.75 2.4375 C7.707349 1.66801547 9.68272593 2.78848396 13 5 C0.72576856 8.22198575 -13.1567663 10.92161685 -25 5 C-25 4.01 -25 3.02 -25 2 C-21.34400897 1.23031768 -17.90726753 0.95357544 -14.1875 1 C-9.3748344 1.05842386 -4.77149121 0.61567629 0 0 Z " fill="#8625B6" transform="translate(482,168)"/>
<path d="M0 0 C0.61875 0.33 1.2375 0.66 1.875 1 C3.91018344 2.14193235 3.91018344 2.14193235 6 2 C5.50745006 7.10281739 2.95459012 10.52089194 0.125 14.625 C-0.32230469 15.29273437 -0.76960937 15.96046875 -1.23046875 16.6484375 C-5.44042073 22.8578062 -5.44042073 22.8578062 -8 25 C-10.6875 24.6875 -10.6875 24.6875 -13 24 C-11.6238996 17.119498 -8.12571388 11.6242043 -4 6 C-3.34 5.67 -2.68 5.34 -2 5 C-1.27840576 3.35636866 -0.60648579 1.68949614 0 0 Z " fill="#D53A85" transform="translate(568,90)"/>
<path d="M0 0 C0.268125 0.61875 0.53625 1.2375 0.8125 1.875 C1.95556848 4.2995233 1.95556848 4.2995233 5 6 C5 5.34 5 4.68 5 4 C5.99 4.33 6.98 4.66 8 5 C7.67 5.66 7.34 6.32 7 7 C4.93101617 12.50927089 4.35221455 17.83628089 3.7578125 23.66015625 C2.91103642 27.39208177 1.58568784 29.23111566 -1 32 C-5.08577098 25.87134353 -4.03641755 19.70808303 -2.66601562 12.83203125 C-2.46685547 11.89746094 -2.26769531 10.96289062 -2.0625 10 C-1.86720703 9.03449219 -1.67191406 8.06898437 -1.47070312 7.07421875 C-0.99157258 4.71362435 -0.50116054 2.35599752 0 0 Z " fill="#A52EA3" transform="translate(432,95)"/>
<path d="M0 0 C3.75586777 1.4538843 3.75586777 1.4538843 4.82421875 3.84375 C5 6 5 6 3.7421875 7.859375 C2.81792969 8.79523437 2.81792969 8.79523437 1.875 9.75 C-1.27844969 13.09152821 -3.5884581 16.39528032 -5.76171875 20.43359375 C-7 22 -7 22 -8.95703125 22.78515625 C-11 23 -11 23 -14 22 C-13.52046374 16.9552785 -11.0540023 13.81629204 -8.125 9.875 C-7.67769531 9.25496094 -7.23039062 8.63492188 -6.76953125 7.99609375 C-4.66713163 5.11227126 -2.57239845 2.48475602 0 0 Z " fill="#E94077" transform="translate(472,52)"/>
<path d="M0 0 C0.33 1.32 0.66 2.64 1 4 C1.66 3.67 2.32 3.34 3 3 C3 3.66 3 4.32 3 5 C3.66 5.33 4.32 5.66 5 6 C3.13279364 8.0907877 1.25682218 10.17243273 -0.625 12.25 C-1.14707031 12.83652344 -1.66914062 13.42304687 -2.20703125 14.02734375 C-5.53251419 17.68126945 -8.77280478 20.43575545 -13 23 C-13.28875 22.38125 -13.5775 21.7625 -13.875 21.125 C-14.93720042 18.86674235 -14.93720042 18.86674235 -17 17 C-16.35933594 16.443125 -15.71867188 15.88625 -15.05859375 15.3125 C-9.61569847 10.5104225 -4.61312349 5.6060143 0 0 Z " fill="#C4348E" transform="translate(555,110)"/>
<path d="M0 0 C0.99 0.33 1.98 0.66 3 1 C3 1.99 3 2.98 3 4 C3.99 3.67 4.98 3.34 6 3 C4.41467191 7.55564061 2.00996919 11.31475769 -0.625 15.3125 C-1.04523438 15.95767578 -1.46546875 16.60285156 -1.8984375 17.26757812 C-2.92838241 18.84760724 -3.96365628 20.42416047 -5 22 C-6.98 21.67 -8.96 21.34 -11 21 C-9.68955874 15.40542385 -7.58347309 11.30001105 -4.375 6.5625 C-3.95476562 5.92634766 -3.53453125 5.29019531 -3.1015625 4.63476562 C-2.07579721 3.08446127 -1.03903187 1.54144439 0 0 Z " fill="#A22DA5" transform="translate(454,145)"/>
<path d="M0 0 C0.763125 0.20625 1.52625 0.4125 2.3125 0.625 C0.8796956 5.26557545 -0.97340063 9.5931879 -3.125 13.9375 C-3.57456055 14.88592773 -3.57456055 14.88592773 -4.03320312 15.85351562 C-4.839438 17.48522308 -5.75720689 19.06069868 -6.6875 20.625 C-7.6775 20.955 -8.6675 21.285 -9.6875 21.625 C-11.43723702 19.05185733 -11.6867773 17.58814253 -11.625 14.4375 C-10.22880581 8.75964361 -7.19953373 -1.0045861 0 0 Z " fill="#7C24BD" transform="translate(442.6875,172.375)"/>
<path d="M0 0 C2 1 2 1 3 3 C5.01669827 4.13350534 5.01669827 4.13350534 7 5 C6.21753906 5.84304687 5.43507813 6.68609375 4.62890625 7.5546875 C3.60665175 8.66134834 2.58452284 9.76812521 1.5625 10.875 C1.04623047 11.43058594 0.52996094 11.98617187 -0.00195312 12.55859375 C-2.82104736 15.54749315 -2.82104736 15.54749315 -5 19 C-8.0625 19.625 -8.0625 19.625 -11 20 C-11.33 19.01 -11.66 18.02 -12 17 C-10.78880593 15.46145618 -9.56725713 13.92809153 -8.26171875 12.46875 C-6.79680628 10.76346489 -5.97922217 9.01964572 -5 7 C-3.38485797 4.6287246 -1.70050809 2.31061405 0 0 Z " fill="#D83C82" transform="translate(487,101)"/>
<path d="M0 0 C0 1.32 0 2.64 0 4 C1.6012776 5.90535223 1.6012776 5.90535223 3.75 7.5625 C4.44609375 8.14128906 5.1421875 8.72007812 5.859375 9.31640625 C7.88430794 10.90900862 9.93019093 12.46629012 12 14 C10.42466914 14.86883706 8.83935491 15.71959068 7.25 16.5625 C6.36828125 17.03816406 5.4865625 17.51382813 4.578125 18.00390625 C1.79298812 19.07998186 0.73019786 19.06528748 -2 18 C-2 17.01 -2 16.02 -2 15 C-1.34 14.67 -0.68 14.34 0 14 C0 13.34 0 12.68 0 12 C0.99 11.34 1.98 10.68 3 10 C-0.96 7.69 -4.92 5.38 -9 3 C-8 1 -8 1 -5.625 -0.1875 C-3 -1 -3 -1 0 0 Z " fill="#B3329A" transform="translate(512,146)"/>
<path d="M0 0 C0.33 1.65 0.66 3.3 1 5 C-0.73805341 6.36946622 -2.49091233 7.72015954 -4.25 9.0625 C-5.22453125 9.81660156 -6.1990625 10.57070312 -7.203125 11.34765625 C-10 13 -10 13 -12.234375 12.93359375 C-14 12 -14 12 -16 9 C-13.30291809 6.13945858 -10.55626501 3.52456704 -7.4375 1.125 C-6.87933594 0.69445312 -6.32117188 0.26390625 -5.74609375 -0.1796875 C-3.47088151 -1.24857916 -2.31728857 -0.82144584 0 0 Z " fill="#D13B87" transform="translate(541,129)"/>
<path d="M0 0 C0 0.66 0 1.32 0 2 C-0.99 2.495 -0.99 2.495 -2 3 C-1.01 3.99 -0.02 4.98 1 6 C-0.44307554 8.88615109 -2.40539257 9.30813809 -5.3125 10.625 C-6.76076172 11.29402344 -6.76076172 11.29402344 -8.23828125 11.9765625 C-11 13 -11 13 -15 13 C-15.33 11.02 -15.66 9.04 -16 7 C-13.71070947 5.82845707 -11.41881638 4.66261926 -9.125 3.5 C-8.47402344 3.16613281 -7.82304687 2.83226562 -7.15234375 2.48828125 C-2.2265625 0 -2.2265625 0 0 0 Z " fill="#DC3D82" transform="translate(519,21)"/>
<path d="M0 0 C0 2.92828926 -0.13970066 5.20402714 -1 8 C-2.32467746 8.6837045 -3.65863633 9.34964186 -5 10 C-6.28254644 12.53770003 -6.28254644 12.53770003 -7 15 C-5.68 15 -4.36 15 -3 15 C-4.39153744 19.42761914 -6.52071486 21.9556255 -10 25 C-10.66 25 -11.32 25 -12 25 C-12.33 25.66 -12.66 26.32 -13 27 C-13 26.01 -13 25.02 -13 24 C-13.20625 23.195625 -13.4125 22.39125 -13.625 21.5625 C-14.05728067 18.60858207 -13.56217417 17.48110015 -12 15 C-11.34 15 -10.68 15 -10 15 C-9.75507813 14.28457031 -9.51015625 13.56914062 -9.2578125 12.83203125 C-7.84640324 9.65416879 -6.08718481 7.36353001 -3.875 4.6875 C-3.15054687 3.80449219 -2.42609375 2.92148438 -1.6796875 2.01171875 C-1.12539063 1.34785156 -0.57109375 0.68398437 0 0 Z " fill="#B0329D" transform="translate(469,124)"/>
<path d="M0 0 C0.33 0 0.66 0 1 0 C1.66 1.98 2.32 3.96 3 6 C4.32 5.01 5.64 4.02 7 3 C7.0809313 5.60478883 7.14045434 8.20706653 7.1875 10.8125 C7.22520508 11.91948242 7.22520508 11.91948242 7.26367188 13.04882812 C7.33834499 18.54974762 7.33834499 18.54974762 5.48828125 21.01171875 C4.75158203 21.50091797 4.75158203 21.50091797 4 22 C0.99438172 19.04763086 -0.27632688 16.94733681 -0.390625 12.79296875 C-0.36426199 11.25732329 -0.31688145 9.72191482 -0.25 8.1875 C-0.23195313 7.39923828 -0.21390625 6.61097656 -0.1953125 5.79882812 C-0.14844048 3.86535739 -0.0767041 1.93251715 0 0 Z " fill="#8826B5" transform="translate(428,119)"/>
<path d="M0 0 C0.433125 0.66 0.86625 1.32 1.3125 2 C2.1478125 2.99 2.1478125 2.99 3 4 C3.99 4 4.98 4 6 4 C3.10933941 13.59453303 3.10933941 13.59453303 0 17 C-0.66 16.67 -1.32 16.34 -2 16 C-2.33 16.66 -2.66 17.32 -3 18 C-3.66 17.67 -4.32 17.34 -5 17 C-4.46246904 10.81839396 -2.45417612 5.673142 0 0 Z " fill="#E13E7D" transform="translate(574,76)"/>
<path d="M0 0 C1.65 1.65 3.3 3.3 5 5 C0.35191638 13.49477352 0.35191638 13.49477352 -2 15 C-4.6875 14.6875 -4.6875 14.6875 -7 14 C-5.70677932 8.2392897 -3.62011357 4.66804118 0 0 Z " fill="#CB388B" transform="translate(562,100)"/>
<path d="M0 0 C0.66 0.33 1.32 0.66 2 1 C0.515 3.475 0.515 3.475 -1 6 C-0.01 6 0.98 6 2 6 C2 5.34 2 4.68 2 4 C2.99 4.33 3.98 4.66 5 5 C1.6381774 9.25171681 -1.74828319 12.6381774 -6 16 C-7.32 14.02 -8.64 12.04 -10 10 C-6.7 6.7 -3.4 3.4 0 0 Z " fill="#BF3493" transform="translate(483,41)"/>
<path d="M0 0 C-0.99 0.33 -1.98 0.66 -3 1 C-2.01 2.485 -2.01 2.485 -1 4 C-0.34 3.34 0.32 2.68 1 2 C0.875 3.8125 0.875 3.8125 0 6 C-4.01924244 8.61718112 -7.22112272 9.63718364 -12 9 C-13.875 7.625 -13.875 7.625 -15 6 C-15 5.34 -15 4.68 -15 4 C-13.06767179 3.13419713 -11.12892806 2.28270059 -9.1875 1.4375 C-8.10855469 0.96183594 -7.02960938 0.48617187 -5.91796875 -0.00390625 C-3 -1 -3 -1 0 0 Z " fill="#A52DA2" transform="translate(513,160)"/>
<path d="M0 0 C0.33 0.99 0.66 1.98 1 3 C2.32 2.67 3.64 2.34 5 2 C5 6.08491807 3.36174875 7.56918475 0.734375 10.546875 C-1 12 -1 12 -4.375 12.4375 C-5.674375 12.2209375 -5.674375 12.2209375 -7 12 C-7.33 11.01 -7.66 10.02 -8 9 C-6.6015625 6.9921875 -6.6015625 6.9921875 -4.625 4.875 C-3.97789062 4.17117187 -3.33078125 3.46734375 -2.6640625 2.7421875 C-1.7838265 1.82062587 -0.90113574 0.90113574 0 0 Z " fill="#E4407B" transform="translate(496,93)"/>
<path d="M0 0 C0.598125 0.639375 1.19625 1.27875 1.8125 1.9375 C3.90810337 4.20310389 3.90810337 4.20310389 7 5 C6.74379316 6.6065676 6.46944129 8.2102483 6.1875 9.8125 C6.03667969 10.70582031 5.88585937 11.59914063 5.73046875 12.51953125 C4.94604607 15.18321256 4.11372201 16.25690322 2 18 C-1.75473702 12.36789447 -1.19540509 6.3754938 0 0 Z " fill="#982AAA" transform="translate(429,109)"/>
<path d="M0 0 C1.65 1.65 3.3 3.3 5 5 C4.01 7.97 3.02 10.94 2 14 C1.34 14 0.68 14 0 14 C-0.33 14.66 -0.66 15.32 -1 16 C-4.03827751 11.74641148 -4.03827751 11.74641148 -3.875 8.5625 C-2.8452418 5.54677956 -1.501736 2.80759339 0 0 Z " fill="#7221C4" transform="translate(430,188)"/>
<path d="M0 0 C0.66 0.33 1.32 0.66 2 1 C1.01 2.485 1.01 2.485 0 4 C0.33 4.66 0.66 5.32 1 6 C2.32 5.67 3.64 5.34 5 5 C2.12505529 8.98069267 -0.82117329 11.43571997 -5 14 C-5.28875 13.38125 -5.5775 12.7625 -5.875 12.125 C-6.93720042 9.86674235 -6.93720042 9.86674235 -9 8 C-6.03 5.36 -3.06 2.72 0 0 Z " fill="#B5339A" transform="translate(547,119)"/>
<path d="M0 0 C2 1 4 2 6 3 C4.87548273 5.9719385 3.77706209 8.33440687 2 11 C-0.97903963 12.15317663 -1.86559131 12.0448029 -5 11 C-4.46884894 6.48521602 -2.63379708 3.65333143 0 0 Z " fill="#DA3D82" transform="translate(463,63)"/>
<path d="M0 0 C2.75383923 1.37691962 3.51483101 3.36720042 5 6 C2.09907498 7.93395001 1.10325263 8.30131941 -2.1875 8.625 C-3.445625 8.74875 -4.70375 8.8725 -6 9 C-6.33 7.35 -6.66 5.7 -7 4 C-1.7265625 0.77734375 -1.7265625 0.77734375 0 0 Z " fill="#C7368D" transform="translate(524,137)"/>
<path d="M0 0 C2.31 0.33 4.62 0.66 7 1 C5.125 6.75 5.125 6.75 4 9 C2.35 8.67 0.7 8.34 -1 8 C-1.33 8.66 -1.66 9.32 -2 10 C-2.6875 8.375 -2.6875 8.375 -3 6 C-1.5625 2.75 -1.5625 2.75 0 0 Z " fill="#CD398A" transform="translate(457,73)"/>
<path d="M0 0 C0.144375 0.639375 0.28875 1.27875 0.4375 1.9375 C1.28989171 5.06293628 2.08933409 5.05955606 5 7 C3.02 9.97 3.02 9.97 1 13 C-1.97 12.505 -1.97 12.505 -5 12 C-3.85814266 7.52040582 -2.56984833 3.85477249 0 0 Z " fill="#9529AD" transform="translate(448,154)"/>
<path d="M0 0 C0.763125 0.20625 1.52625 0.4125 2.3125 0.625 C1.15107315 4.98035069 0.23550495 7.27119703 -3.6875 9.625 C-5.0075 8.305 -6.3275 6.985 -7.6875 5.625 C-6.02612914 1.79106724 -4.59035464 -0.6405146 0 0 Z " fill="#8A27B4" transform="translate(442.6875,172.375)"/>
<path d="M0 0 C-0.33 2.97 -0.66 5.94 -1 9 C-5 8 -5 8 -7 6 C-7.125 2.875 -7.125 2.875 -7 0 C-4.3333581 -1.33332095 -2.83319697 -0.67102033 0 0 Z " fill="#BD3493" transform="translate(456,93)"/>
<path d="M0 0 C1.32 0.66 2.64 1.32 4 2 C2.5023304 4.49824035 0.98441782 6.86004673 -1 9 C-3.8125 9.4375 -3.8125 9.4375 -6 9 C-5.69381595 5.32579134 -5.24228216 4.21864487 -2.4375 1.6875 C-1.633125 1.130625 -0.82875 0.57375 0 0 Z " fill="#BC3494" transform="translate(468,130)"/>
<path d="M0 0 C0.99 0.66 1.98 1.32 3 2 C3 3.32 3 4.64 3 6 C1.25 7.75 1.25 7.75 -1 9 C-2.32 9 -3.64 9 -5 9 C-5.3125 6.75 -5.3125 6.75 -5 4 C-2.5 1.6875 -2.5 1.6875 0 0 Z " fill="#DF3C7C" transform="translate(539,128)"/>
<path d="M0 0 C1.32 0.66 2.64 1.32 4 2 C3.67 3.32 3.34 4.64 3 6 C1.35 5.67 -0.3 5.34 -2 5 C-2 2 -2 2 0 0 Z " fill="#F6416C" transform="translate(473,53)"/>
<path d="M0 0 C0.66 0.66 1.32 1.32 2 2 C-1.3 5.63 -4.6 9.26 -8 13 C-8 9.00717059 -6.52191924 7.84668408 -4 4.8125 C-3.2575 3.91144531 -2.515 3.01039062 -1.75 2.08203125 C-1.1725 1.39496094 -0.595 0.70789063 0 0 Z " fill="#BA389A" transform="translate(479,111)"/>
<path d="M0 0 C0.66 0.33 1.32 0.66 2 1 C1.2884375 1.928125 1.2884375 1.928125 0.5625 2.875 C-1.02417441 4.90705546 -1.02417441 4.90705546 -2 7 C-3.64363134 7.72159424 -5.31050386 8.39351421 -7 9 C-2.85714286 2.57142857 -2.85714286 2.57142857 0 0 Z " fill="#DF4182" transform="translate(472,52)"/>
<path d="M0 0 C0.33 0.66 0.66 1.32 1 2 C-0.98 4.64 -2.96 7.28 -5 10 C-5.66 9.34 -6.32 8.68 -7 8 C-4.69 5.36 -2.38 2.72 0 0 Z " fill="#BB3598" transform="translate(555,110)"/>
<path d="M0 0 C2.475 0.99 2.475 0.99 5 2 C5 2.99 5 3.98 5 5 C3.68 5 2.36 5 1 5 C0.67 3.35 0.34 1.7 0 0 Z " fill="#E93E75" transform="translate(503,29)"/>
<path d="M0 0 C0.66 0.33 1.32 0.66 2 1 C0.70700306 3.88437779 -0.65941363 5.87219421 -3 8 C-3.33 7.34 -3.66 6.68 -4 6 C-2.68 4.02 -1.36 2.04 0 0 Z " fill="#C43C97" transform="translate(487,101)"/>
<path d="" fill="#9E38C8" transform="translate(0,0)"/>
</svg>
